<svg width="414" height="214" viewBox="0 0 414 214" fill="none" xmlns="http://www.w3.org/2000/svg">
<path d="M14.5 200.998L401 201.998M6 80.5C164.038 -8.08675 251.988 -11.0765 407.5 80.5M200.5 52.5V115V146.25V177.5" stroke="#28336B" stroke-width="24"/>
<rect x="181" y="52" width="54" height="129" fill="#28336B"/>
<path d="M151 53.5V102.5C99.0889 114.929 83.4562 132.142 73.5 176.5H20.5C36.1143 105.615 64.7706 78.7373 151 53.5Z" fill="#28336B"/>
<path d="M263 54V103.797C315.906 116.428 331.838 133.921 341.985 179H396C380.087 106.962 350.881 79.6477 263 54Z" fill="#28336B"/>
<rect x="131" y="129" width="29" height="50" fill="#28336B"/>
<rect x="254" y="129" width="29" height="50" fill="#28336B"/>
</svg>
